Coordinates
version=1
nRows=9
nColumns=36
inDegrees=yes

Units are S.I. units (second, meters, Newtons, ...)
If the header above contains a line with 'inDegrees', this indicates whether rotational values are in degrees (yes) or radians (no).

endheader
time	pelvis_tilt	pelvis_list	pelvis_rotation	pelvis_tx	pelvis_ty	pelvis_tz	hip_flexion_r	hip_adduction_r	hip_rotation_r	knee_angle_r	knee_angle_r_beta	ankle_angle_r	subtalar_angle_r	mtp_angle_r	hip_flexion_l	hip_adduction_l	hip_rotation_l	knee_angle_l	knee_angle_l_beta	ankle_angle_l	subtalar_angle_l	mtp_angle_l	lumbar_extension	lumbar_bending	lumbar_rotation	arm_flex_r	arm_add_r	arm_rot_r	elbow_flex_r	pro_sup_r	arm_flex_l	arm_add_l	arm_rot_l	elbow_flex_l	pro_sup_l
      0.66000000	      1.78132787	      2.41743277	     -6.10422655	      0.70378930	      0.92942952	     -0.22803488	    -14.50155835	     -2.00302831	      0.21621595	     33.81017701	      0.59009891	     -5.79257370	    -10.13105602	     -6.94023639	     22.57161811	      5.47563607	     -3.47818014	     21.59526967	      0.37690856	     -4.15678207	    -19.28223461	     -6.94023639	     -4.69962038	     -3.90026427	      5.90117821	      0.82997705	     -5.83115487	     -7.68719248	     45.81061504	    112.19867927	     -9.10131762	     -7.86094408	     -7.56193694	     16.92316860	    104.65745429
      0.67000000	      1.84611697	      2.75387146	     -5.58392451	      0.71747258	      0.93106179	     -0.22951570	    -12.43736400	     -2.55423013	     -0.11696925	     38.08558015	      0.66471877	     -9.94112874	    -11.45621714	     -6.96219586	     21.73294933	      6.14950524	     -3.19119315	     21.93935764	      0.38291403	     -2.79828304	    -18.78022907	     -6.96219586	     -4.69785612	     -4.36217833	      5.09280050	      0.17678008	     -5.50503730	     -7.61726204	     45.01040526	    112.29848537	     -8.51885165	     -7.90602454	     -7.03529559	     17.62543645	    104.78787038
      0.68000000	      2.01659921	      3.24196862	     -5.15355522	      0.73092592	      0.93279904	     -0.23110074	    -10.33683469	     -3.44615198	     -0.56191164	     42.34238423	      0.73901402	    -13.21029703	    -11.25764997	     -6.96957060	     20.57228632	      7.02010035	     -2.86383105	     21.81515649	      0.38074631	     -1.80399690	    -18.64942249	     -6.96957060	     -4.82774088	     -4.96981658	      4.41288850	     -0.52449385	     -5.23314537	     -7.53969141	     44.33478929	    112.31517103	     -7.75644824	     -7.90556353	     -6.77544752	     18.20450143	    104.88128637
      0.69000000	      2.09538154	      3.67023833	     -4.78732133	      0.74391189	      0.93436431	     -0.23245371	     -8.04998282	     -4.22012439	     -0.72003822	     46.44585676	      0.81063312	    -16.24740155	    -11.33519605	     -6.97554577	     19.45705122	      7.75222835	     -2.63598766	     21.55823334	      0.37626215	     -0.87337982	    -18.42207709	     -6.97554577	     -4.89736202	     -5.52683929	      3.72790797	     -1.11705684	     -4.90087144	     -7.43863949	     43.50865013	    112.32546447	     -6.97070865	     -7.94444133	     -6.46616492	     18.88174466	    105.00316178
      0.70000000	      1.95212028	      3.90635784	     -4.47199936	      0.75649519	      0.93564769	     -0.23359717	     -5.48204661	     -4.67309658	     -0.71446714	     50.23541628	      0.87677342	    -19.53308218	    -13.10147113	     -6.99538130	     18.62157303	      8.14912890	     -2.68339226	     21.38713863	      0.37327599	      0.31641045	    -17.46210443	     -6.99538130	     -4.75480886	     -5.83239528	      2.94013087	     -1.42681116	     -4.67539342	     -7.04059785	     42.05904161	    112.43443120	     -6.38171156	     -7.96363035	     -5.78148108	     19.79782246	    105.29065921
      0.71000000	      2.02849759	      4.27859165	     -4.28155486	      0.76888031	      0.93724898	     -0.23466479	     -3.16516075	     -5.35357219	     -0.59641894	     53.70586075	      0.93734410	    -20.87988213	    -13.27345150	     -7.00060476	     17.34315018	      8.75241617	     -2.53590653	     20.77591044	      0.36260804	      1.11128799	    -17.14580325	     -7.00060476	     -4.90631463	     -6.28917990	      2.43393466	     -1.94330837	     -4.43233340	     -6.91682023	     41.21109923	    112.43612494	     -5.43375201	     -7.94211314	     -5.52367836	     20.42532167	    105.40967260
      0.72000000	      1.85834758	      4.58348896	     -4.14673976	      0.78103667	      0.93848250	     -0.23562385	     -0.55296009	     -5.91255931	     -0.43971526	     56.91691957	      0.99338765	    -21.29630788	    -14.24850880	     -7.00770385	     16.35257295	      9.20118695	     -2.57959140	     20.15397361	      0.35175320	      1.88281809	    -16.53050053	     -7.00770385	     -4.73952149	     -6.65520850	      1.95063684	     -2.35529661	     -4.22680219	     -6.75956028	     39.93663948	    112.44272372	     -4.61959018	     -7.92310707	     -5.04937587	     21.25458961	    105.60196998
      0.73000000	      1.70573258	      4.76379964	     -4.04877869	      0.79291349	      0.93984805	     -0.23634219	      1.97071212	     -6.21976869	     -0.13235134	     59.67058901	      1.04144824	    -20.80832007	    -15.45328438	     -7.01439934	     15.31973606	      9.48767355	     -2.64045241	     19.49515855	      0.34025470	      2.65866589	    -15.87430557	     -7.01439934	     -4.66931344	     -6.88812919	      1.46221032	     -2.68541858	     -4.03143994	     -6.55350343	     38.67630319	    112.46028479	     -3.73797096	     -7.92641678	     -4.53864205	     22.06768856	    105.79731660
      0.74000000	      1.44629613	      4.79899533	     -3.97832845	      0.80456081	      0.94113178	     -0.23688276	      4.57567874	     -6.27247184	      0.26857094	     62.02625004	      1.08256229	    -19.61305647	    -16.59844538	     -7.03236465	     14.49067398	      9.53693667	     -2.91199790	     19.01771318	      0.33192171	      3.78461458	    -14.53092653	     -7.03236465	     -4.48277974	     -6.95238848	      0.82179639	     -2.75606488	     -3.90011479	     -5.94724587	     36.98300777	    112.58101575	     -2.99147455	     -8.02567123	     -3.53441357	     22.93300871	    106.13461573
